<svg width="162" height="323" viewBox="0 0 162 323" fill="none" xmlns="http://www.w3.org/2000/svg">
<g id="Group 11">
<g id="Jeppe purple">
<g id="peep-1">
<g id="pose/standing/walking-1">
<path id="&#226;&#156;&#139; Skin" fill-rule="evenodd" clip-rule="evenodd" d="M119.347 294.509C120.037 291.301 116.882 290.217 114.893 289.504C113.468 288.581 108.19 285.384 104.105 281.438C100.763 278.209 98.4872 274.07 97.5401 273.675C97.5401 273.675 96.5652 273.111 96.4639 272.691C95.8707 270.232 96.3654 267.941 96.4639 266.45C98.3654 265.951 99.8891 265.329 101.029 264.459C101.361 264.57 101.859 264.712 102.008 264.226C103.038 257.363 103.482 250.581 104.32 243.712C107.492 217.552 107.85 186.991 102.393 163.098C102.336 161.913 102.439 160.844 102.545 159.826C103.283 159.747 103.729 159.033 104.331 158.607C105.266 157.865 106.373 157.294 106.328 155.997C106.55 155.829 106.524 155.734 106.415 155.52C107.128 152.457 103.946 149.228 103.047 146.703C104.682 130.724 102.457 115.625 103.698 99.6425C105.266 98.9871 104.212 94.8907 104.105 93.201C103.236 82.3158 97.5712 71.5537 87.3697 67.9976C86.7865 67.8796 85.91 67.2138 85.4274 67.6608C84.4948 67.2918 83.254 68.0194 82.5322 67.1817L82.5395 67.1763C81.9317 66.3345 81.6593 65.2644 81.4595 64.2526C81.4929 64.5378 81.5487 64.8205 81.6174 65.0969C79.8587 60.1462 79.4157 58.8224 73.754 58.5893C71.2037 58.5552 67.8418 58.6317 66.3547 61.0612C65.7454 62.1906 65.9315 63.4875 65.5533 64.6763C64.8591 66.8579 61.8625 65.8036 60.2893 66.9365C47.698 70.9702 37.3701 79.2037 33.9754 92.4191C33.2814 94.0119 32.4942 95.5972 31.914 97.241C31.8242 97.485 31.5772 98.3107 32.1705 98.6907L32.4574 98.8745C28.6781 116.518 28.4273 131.385 41.1243 143.148C42.0771 148.202 39.626 155.104 40.5682 160.011C40.0313 160.772 40.7121 161.385 41.3985 161.434C41.4647 161.471 41.7321 161.588 41.805 161.621C40.7127 177.023 45.2988 197.781 47.3202 205.974C47.5954 210.893 45.9146 214.934 42.4568 217.615C38.6364 219.965 31.0835 230.58 32.4837 241.714C30.8474 242.035 29.2229 242.211 27.653 242.825C20.784 241.614 20.8521 254.841 20.4144 259.492C19.6731 267.278 19.2124 278.565 26.6186 283.549C28.5697 284.963 32.5258 286.618 34.5531 284.355C35.2174 283.558 35.3837 282.788 35.1224 281.974C38.47 277.25 37.5679 271.071 37.8754 265.53C38.8461 265.471 39.8618 265.926 40.8007 265.761C41.7645 264.912 38.2485 265.144 37.8839 265.094C37.9212 264.239 37.9901 263.34 38.0789 262.478C38.6304 262.589 39.3368 262.853 39.8671 262.873C40.181 262.949 40.4029 262.518 40.2134 262.294C39.7995 261.9 38.7443 261.961 38.1504 261.905C38.2507 261.184 38.3733 260.426 38.5096 259.728C39.2361 259.702 39.9862 260.164 40.6741 260.07C40.1535 259.723 39.1763 259.828 38.5416 259.599C38.9543 257.353 39.7952 255.221 40.577 253.12C42.4951 253.91 44.1499 253.941 46.0225 253.704C46.7885 253.822 47.1619 253.665 47.2859 252.709L47.237 252.648C48.7212 243.777 53.5106 235.32 62.4067 225.73C64.1639 223.766 66.1496 221.453 67.4727 218.867C70.1312 213.486 70.5853 207.547 72.6338 201.959C74.5462 196.341 77.1613 190.968 79.6165 185.643C79.9766 188.372 80.4602 191.172 80.963 193.848C83.1758 203.331 82.9614 213.449 81.3329 222.984C78.9234 236.34 80.0848 249.758 79.5489 263.208C79.5562 263.984 79.6525 264.689 79.5386 265.496C79.5235 265.558 79.5529 265.632 79.6266 265.63L79.7657 265.634C80.9238 266.481 82.5232 266.634 83.884 267.093C84.4555 267.545 84.2945 268.261 84.3469 268.819C84.4963 271.225 84.6875 273.64 84.4503 276.119C83.4002 278.129 82.0962 277.714 81.8295 280.547C81.596 283.781 81.1829 287.22 82.7597 290.1L82.1631 290.203C81.2778 292.059 81.8183 293.263 83.8992 294.048C94.1721 298.071 108.628 301.724 119.347 298.687C119.542 298.88 119.826 298.68 120.047 298.377C120.26 298.085 120.416 297.699 120.381 297.474C120.198 296.489 120.45 294.691 119.347 294.509Z" fill="#D09A5B"/>
<path id="&#240;&#159;&#145;&#149; Top" fill-rule="evenodd" clip-rule="evenodd" d="M41.4758 144.015L42.2525 144.818L42.6243 145.201L43.1672 145.757C44.329 146.942 45.5399 148.151 47.2984 149.888L51.8358 154.36L52.7099 155.228L53.1374 155.653L51.3771 155.872L51.0071 155.919L50.7202 155.957L50.434 155.996C48.5899 156.249 47.3694 156.496 46.157 156.894C44.3834 157.476 43.0016 158.317 41.9698 159.528L41.9209 159.586L41.4989 160.091L41.4041 159.44C41.3081 158.781 41.2696 158.099 41.2725 157.298L41.2754 156.988L41.2801 156.74L41.2855 156.536C41.2889 156.422 41.293 156.297 41.298 156.153L41.3372 155.081L41.3469 154.763L41.3506 154.612C41.3523 154.539 41.3535 154.469 41.3546 154.399L41.3568 154.181L41.3473 153.95L41.3359 153.649L41.3285 153.433C41.2521 151.108 41.2915 148.887 41.4345 145.093L41.4758 144.015ZM60.9345 66.973L60.853 67.4461C60.3966 70.0951 61.5902 72.2859 64.1527 73.8882C66.4982 75.3548 69.8825 76.2348 73.5086 76.3742C77.1043 76.5126 80.6122 75.9088 83.1737 74.6722C85.9189 73.3469 87.4141 71.3995 87.355 68.9769L87.3528 68.9033L87.3355 68.4392L87.7627 68.6225C93.1186 70.921 97.2732 75.3065 99.8823 81.059C102.265 86.3129 103.219 92.4533 102.608 98.2111L102.589 98.3854L102.551 98.7256L102.22 98.6364C101.63 98.4773 100.113 98.9294 97.7594 100.005L97.5618 100.096L96.4841 100.844L96.4658 101.398C95.7463 124.002 97.9134 140.125 102.953 149.758L103.106 150.048L103.265 150.34C103.356 150.51 103.459 150.687 103.588 150.899L103.738 151.142L103.967 151.508L104.091 151.708L104.152 151.808C104.397 152.212 104.545 152.488 104.686 152.807C104.91 153.314 105.035 153.796 105.052 154.284L105.054 154.345L105.054 154.365L105.064 154.384C105.138 154.534 105.134 154.715 105.052 154.868L105.039 154.891L105.034 154.899L105.014 155.057L104.88 155.083L104.861 155.101C104.665 155.283 104.401 155.4 104.058 155.485L104.011 155.496L103.964 155.507C103.892 155.523 103.817 155.538 103.732 155.554L103.412 155.609L103.027 155.685L102.544 155.779L102.412 155.806L102.275 155.834C101.466 156.005 100.924 156.173 100.419 156.428C97.8732 157.763 95.3495 158.405 92.6844 158.48C90.5608 158.539 88.4562 158.259 85.709 157.635L85.1494 157.505L84.8243 157.428L84.4248 157.331C84.2998 157.301 84.1654 157.267 84.0166 157.231L82.0839 156.749L81.4747 156.6L81.1205 156.514C79.742 156.183 78.8106 155.988 77.7486 155.81C75.889 155.499 74.196 155.372 72.5289 155.451L72.4007 155.457L72.3258 155.461L72.2582 155.429C68.8301 153.792 66.0152 151.414 63.4567 148.188L63.2839 147.968L63.1759 147.83C61.4216 145.572 60.0951 143.409 57.575 138.932L56.9162 137.761L56.453 136.942L56.1511 136.412C54.8282 134.096 53.9737 132.703 52.922 131.17C51.2254 128.698 49.5011 126.691 47.564 125.023L47.4653 124.939L47.4534 124.928C47.069 124.563 46.81 124.233 46.6464 123.863L46.628 123.82L46.5993 123.752L46.6503 123.232L46.7036 122.675C47.1306 118.154 47.5826 111.983 48.0595 104.163L48.1454 102.742L45.8189 101.84L44.7441 101.427L44.511 101.338L44.2354 101.235L43.9554 101.131L43.6798 101.029C42.4951 100.594 41.4309 100.231 40.4082 99.916L40.1775 99.8456C37.6903 99.0945 35.5916 98.6908 33.8487 98.6829L33.7685 98.6828L33.4019 98.6837L33.4149 98.6245L33.4039 98.6232C33.3194 98.6127 33.2405 98.5964 33.1674 98.5731L33.1314 98.5609L33.0964 98.5474C32.797 98.4254 32.6518 98.1569 32.7678 97.8359L32.7772 97.811L32.8389 97.5883C34.9938 89.8304 37.911 83.7459 41.9504 78.9177L42.0732 78.7718L42.1991 78.6237C46.6789 73.3854 52.5618 69.619 60.2424 67.1891L60.4757 67.1159L60.9345 66.973Z" fill="#AA8DEA"/>
<path id="&#240;&#159;&#145;&#159; Shoes" fill-rule="evenodd" clip-rule="evenodd" d="M100.994 298.76C99.1481 298.428 88.5443 296.019 82.4667 292.885C81.2254 292.245 81.5309 290.733 81.9354 289.752C82.1207 289.302 82.5591 288.963 82.4667 288.871C80.5235 286.93 81.9766 281.821 81.9766 280.842C81.9766 279.387 84.3383 277.417 83.9371 276.632C83.4739 275.727 84.0434 278.824 85.2114 280.549C86.2294 282.052 87.8273 282.168 87.9858 282.102L88.0144 282.09L88.0349 282.079C88.4744 281.839 95.1112 272.289 97.8568 273.695C99.1489 274.356 99.8431 277.282 101.288 278.492C104.527 281.208 106.091 285.542 118.148 291.123C119.439 291.72 119.45 292.998 119.187 293.998C119.09 294.366 120.403 294.354 120.207 294.55C119.709 295.047 121.09 297.906 120.011 298.368C115.763 300.187 104.733 299.433 100.994 298.76ZM32.0835 241.874C32.0835 241.874 32.7802 242.745 32.7676 243.147C32.6636 246.456 31.8756 248.893 31.851 250.52L31.8495 250.63L31.8522 250.671C31.8999 251.331 32.9093 253.866 35.1202 254.406C36.369 254.711 40.0215 253.329 40.0215 253.329C40.0215 253.329 37.9349 259.087 37.5709 264.295C37.285 268.386 37.5157 273.025 36.9827 276.632C36.6918 278.601 35.6381 280.792 34.4341 282.311C34.139 282.683 35.4217 283.388 35.1202 283.682C34.5556 284.232 33.1597 286.129 28.8466 284.661C27.5911 284.233 23.9382 281.858 21.8867 277.318C20.3882 274.001 20.2472 269.169 20.0243 264.883C19.7779 260.146 20.6934 252.753 21.8867 248.727C23.2138 244.251 24.8637 243.376 25.2056 243.128C25.2855 243.07 27.7691 242.58 28.0082 242.553L28.0499 242.549L28.0829 242.546L28.1011 242.539C29.0762 242.162 30.191 241.98 31.657 241.896L31.7472 241.891L32.0835 241.874Z" fill="white"/>
<path id="&#240;&#159;&#150;&#141; Ink" fill-rule="evenodd" clip-rule="evenodd" d="M119.837 297.731C110.606 301.871 93.8434 296.647 84.7731 293.624C82.3274 292.743 81.5127 292.57 82.1979 289.754C83.4801 292.225 86.2376 292.822 88.8794 293.318C97.8282 295.355 106.951 299.117 116.522 297.282C117.926 297.061 119.316 296.301 119.725 294.899C119.977 295.493 119.821 296.298 119.922 296.952C119.941 297.212 119.947 297.494 119.837 297.731ZM82.5018 282.33C82.6685 280.67 82.9351 278.917 83.881 277.45C83.7781 279.822 85.2044 283.854 88.3295 282.511C89.2146 282.043 89.7107 281.099 90.2802 280.341C92.173 277.848 94.6002 275.684 97.342 274.111C98.8672 274.373 99.5231 277.159 100.506 278.325C99.4103 278.813 97.4243 279.924 97.2234 281.074C98.5919 280.614 99.8514 279.758 101.287 279.457C101.746 280.091 102.234 280.705 102.745 281.299C102.077 281.593 99.3809 282.954 99.3986 283.634C100.856 283.397 102.269 282.684 103.734 282.391C104.386 283.037 104.979 283.732 105.628 284.38C104.648 284.783 103.613 285.234 103.077 286.173C103.052 286.216 103.115 286.263 103.149 286.222C103.883 285.338 105.147 285.176 106.242 284.977C107.922 286.557 109.803 287.951 111.909 288.994C114.015 290.144 117.217 290.408 118.055 292.903C118.725 295.399 116.634 295.665 114.705 295.841C112.754 296.119 110.788 296.161 108.849 295.999C102.788 295.746 97.0587 293.964 91.331 292.407C84.3281 291.12 82.0558 290.077 82.5018 282.33ZM84.5555 267.739C84.5388 267.848 84.5242 267.958 84.5085 268.069C84.4888 267.952 84.4752 267.835 84.4467 267.72C84.483 267.726 84.5192 267.733 84.5555 267.739ZM95.8697 273.311C93.1866 275.293 90.5674 277.502 88.7039 280.266C87.4707 282.515 85.8298 281.146 85.4221 279.344C85.0917 275.322 85.3759 271.848 84.9888 267.801C88.6991 268.307 92.5103 267.995 96.1343 267.101C95.6982 268.908 95.4981 269.594 95.4844 271.447C95.508 272.057 95.4991 272.803 95.8697 273.311ZM101.876 125.248C101.955 131.168 101.992 137.091 101.786 143.01C96.5685 129.539 98.1655 114.922 97.4243 100.763C98.9663 100.25 100.623 100.026 102.212 99.8066C101.574 108.595 101.738 116.446 101.876 125.248ZM72.3865 155.16C59.5746 149.041 57.8023 133.354 47.6577 124.711C47.3302 124.4 47.0587 124.08 46.9008 123.703C47.6282 116.362 47.5752 109.927 48.435 102.594C49.3956 100.853 49.775 98.8314 50.4905 96.9789C50.8651 95.851 51.3198 94.7338 51.4276 93.5501C51.5178 93.1604 50.9081 92.991 50.7945 93.3592C49.4407 95.9871 48.7672 98.9098 47.7567 101.681C47.6144 101.737 47.4252 101.692 47.3694 101.544C47.3606 101.58 47.3507 101.616 47.3419 101.652C42.9925 99.9545 38.5078 98.3732 33.7693 98.3849C33.7723 98.3703 33.7762 98.3546 33.7792 98.3399C33.487 98.3487 32.8743 98.3252 33.0576 97.9022C37.2227 82.7309 44.7012 72.3318 60.5647 67.3922C58.5365 79.164 88.056 79.8455 87.6482 68.8883C98.7682 73.6605 103.559 87.0635 102.298 98.3487C101.241 98.0638 98.4898 99.1849 97.4164 99.836C97.1978 95.2538 97.741 89.7237 97.4213 85.6262C95.7294 106.518 92.572 131.517 103.007 150.474C103.684 151.744 104.789 152.961 104.762 154.453C104.843 154.535 104.851 154.679 104.752 154.785C104.752 154.791 104.752 154.798 104.751 154.805C104.746 154.806 104.74 154.806 104.734 154.806C104.431 155.166 103.794 155.238 103.356 155.317C102.321 155.526 101.232 155.684 100.284 156.164C90.1842 161.46 82.2626 154.633 72.3865 155.16ZM75.5784 164.786C76.0664 165.717 76.886 166.466 77.8575 166.934C77.7378 167.169 77.6966 167.434 77.6838 167.681C75.9341 168.039 76.4262 168.868 75.2441 169.264C74.4706 169.477 73.7265 169.568 73.058 170.036C70.7828 172.153 70.2182 171.997 67.7764 170.135C67.8098 169.967 64.4867 166.725 63.4575 164.913C62.5997 163.401 61.7017 161.878 60.3872 160.709C53.9498 154.126 47.092 147.912 40.8605 141.147C28.3721 128.717 30.755 114.623 33.6233 99.0968C38.253 99.649 42.9082 100.758 47.0773 102.795C45.607 109.648 45.5128 115.859 44.8795 122.813C44.6884 123.672 44.904 125.328 46.1236 124.946C57.3327 133.836 58.6355 152.103 73.3452 157.385C79.3405 159.819 76.8104 161.795 78.7915 166.391C77.7015 166.191 76.7291 165.279 76.2605 164.405C76.0283 163.972 75.3518 164.353 75.5784 164.786ZM41.6966 159.393C41.4428 157.651 41.6407 155.917 41.6525 154.173C41.5163 150.995 41.6222 147.899 41.7447 144.711C45.2599 148.348 48.9143 151.862 52.504 155.432C48.681 155.914 44.2718 156.31 41.6966 159.393ZM41.6319 161.956C41.6918 161.936 41.7505 161.91 41.8044 161.877C41.7907 163.244 41.8123 164.611 41.8623 165.976C41.7662 164.636 41.6898 163.296 41.6319 161.956ZM37.3315 259.113C36.3004 259.033 31.8901 258.882 31.3609 259.573C31.9569 259.825 32.7763 259.686 33.4174 259.714C34.6624 259.765 35.9044 259.874 37.1366 260.049C37.0443 260.529 36.961 261.007 36.8925 261.488C35.6495 261.607 33.2291 261.66 32.4401 262.529C33.8477 262.753 35.3132 262.551 36.7257 262.831C36.6571 263.489 36.6071 264.148 36.57 264.807C36.0072 264.867 32.6979 265.414 32.7009 265.934C33.9398 266.099 35.2524 265.882 36.5151 266.005C36.2415 269.953 37.1689 281.878 31.7656 282.607C27.0418 282.359 24.9695 274.712 24.3275 271.043C22.9041 262.496 23.1483 253.382 25.9694 245.143C26.9771 242.852 29.7199 242.454 32.0392 242.336C32.1273 242.723 32.2146 243.104 32.3126 243.488C31.3069 245.765 30.9864 248.33 30.9589 250.794C31.1716 254.337 35.5475 256.97 38.7255 254.63C38.1314 256.079 37.6728 257.587 37.3315 259.113ZM31.0805 284.596C21.7239 282.587 20.1888 271.764 20.8319 263.806C21.3563 258.266 20.7261 246.586 25.8458 243.331C19.2291 249.365 19.8036 290.438 34.4672 283.269C34.1016 284.427 32.2214 284.761 31.0805 284.596ZM32.9136 245.98C32.9303 245.837 32.9488 245.695 32.9684 245.552C34.0065 248.369 35.7847 251.046 38.4325 252.677C37.4188 253.94 35.4445 254.316 34.1124 253.282C31.7891 251.542 32.7577 248.394 32.9136 245.98ZM64.8072 66.0254C64.7887 66.0577 64.769 66.09 64.7493 66.1213C64.62 66.1301 64.4896 66.1419 64.3572 66.1566C64.5073 66.1115 64.6573 66.0694 64.8072 66.0254ZM82.5882 67.0593C82.5832 67.0446 82.5783 67.0299 82.5744 67.0162C82.5861 67.0231 82.5979 67.0309 82.6106 67.0387C82.6009 67.0446 82.5949 67.0515 82.5882 67.0593ZM120.746 296.016C120.72 295.316 120.71 294.411 119.889 294.162C120.261 291.142 117.752 289.424 115.117 288.587C112.87 287.214 110.323 286.255 108.258 284.6C109.217 284.42 110.175 284.203 111.027 283.786C111.67 283.472 111.361 282.426 110.664 282.523C109.43 282.685 108.321 283.312 107.161 283.748C106.502 283.207 105.864 282.643 105.262 282.045C106.012 281.9 106.967 281.954 107.404 281.209C107.541 280.976 107.48 280.735 107.315 280.555C106.555 279.786 105.047 280.554 104.102 280.778C103.648 280.256 103.21 279.723 102.779 279.183C103.493 279.118 105.35 279.248 104.986 278.071C104.289 277.151 102.79 277.703 101.783 277.893C100.504 276.323 100.093 273.914 98.0948 273.05C98.0232 272.67 97.5254 272.699 97.193 272.812C96.7039 270.479 96.7411 269.294 96.8843 266.903C98.3673 266.492 99.8387 265.954 101.072 265.071C101.639 265.237 102.326 265.045 102.443 264.38C102.796 262.038 102.993 259.334 103.24 256.941H103.33C103.8 252.576 104.178 248.199 104.71 243.845C107.751 218.681 108.414 187.967 102.783 163.106C102.739 162.164 102.806 161.221 102.901 160.286C103.572 160.107 103.972 159.452 104.528 159.073C105.561 158.232 106.612 157.761 106.707 156.293C106.916 156.095 106.941 155.794 106.826 155.534C107.094 154.027 106.699 152.531 105.897 151.229C105.016 149.745 104.185 148.248 103.451 146.691C105.057 131 102.879 115.793 104.069 100.023C105.597 99.2152 104.638 94.727 104.496 93.2309C103.604 83.4055 99.0113 72.557 89.247 68.4702C88.5618 67.8925 87.605 67.6967 86.7679 67.3785C86.2023 67.1004 85.2818 66.8596 84.8946 67.5068C84.484 67.3158 83.1615 67.1699 82.7087 66.839C82.6244 66.7773 82.5704 66.7098 82.5577 66.6344C82.5244 66.6353 82.4852 66.6285 82.443 66.6197C82.0255 66.0303 81.6274 61.9248 81.1128 62.2176C80.5511 63.6275 80.9403 65.2205 81.4775 66.6442C81.848 67.9033 82.3559 71.1422 84.3241 70.3139C84.6634 70.1455 84.4535 69.7078 84.1496 69.6725C83.2165 69.4062 83.0086 68.0365 82.6479 67.2336C83.0753 67.588 85.0222 68.1197 85.2349 68.2323C89.4578 77.9137 63.9249 77.4056 61.9175 70.731C60.4862 68.4252 61.7214 67.1758 64.273 66.8057C62.3977 68.8873 64.772 69.3494 65.6747 67.308C66.5383 65.8462 66.9314 64.0701 66.6363 62.388C66.7883 61.7976 66.9168 61.0084 66.0325 61.167C66.0022 61.0887 65.9541 61.1504 65.9728 61.2062C65.6502 61.7192 65.8748 62.4565 65.7601 63.0489C65.663 64.0182 65.3875 64.9679 64.92 65.8256C64.0525 65.9911 63.1888 66.1683 62.3292 66.3622C61.8135 65.3155 58.4688 67.403 57.5709 67.6487C45.6422 71.1686 36.5708 80.5426 33.4047 92.3664C32.6979 93.9408 31.9352 95.523 31.3569 97.1464C31.0981 97.8494 31.0981 98.7218 31.8088 99.1771C28.3455 115.045 27.5005 131.579 40.5841 143.481C40.881 144.769 40.6831 146.136 40.6743 147.448C40.784 150.436 38.2275 160.678 41.1968 162.003C40.3292 175.27 43.5827 193.321 46.7362 206.12C46.9694 210.519 45.6413 214.521 42.0662 217.297C35.2691 222.373 32.4057 230.845 31.6107 238.919C31.498 239.746 31.6088 240.588 31.7951 241.401C30.3217 241.675 28.9426 241.853 27.5123 242.392C19.6241 240.883 20.1869 257.811 19.5831 262.833C19.1105 270.259 19.4055 279.16 26.237 284.022C28.5337 285.655 32.5881 287.224 34.8261 284.751C35.4592 283.994 35.8044 283.109 35.5553 282.141C38.7637 277.449 38.0059 271.45 38.2461 266.11C39.0862 266.14 40.0017 266.514 40.8292 266.308C41.4664 266.14 41.5477 265.323 41.0086 264.998C40.2301 264.558 39.1724 264.725 38.302 264.696C38.3285 264.185 38.3668 263.673 38.4158 263.162C39.242 263.364 40.4262 263.849 40.6722 262.695C40.7713 261.645 39.443 261.564 38.6158 261.519C38.6736 261.123 38.7383 260.728 38.8118 260.335C39.4451 260.398 40.1135 260.802 40.7361 260.609C41.0889 260.47 41.2114 260.113 40.9536 259.825C40.4743 259.356 39.6547 259.45 39.0206 259.304C39.4058 257.419 40.1018 255.616 40.7723 253.814C41.9859 254.235 43.3003 254.513 44.5953 254.407C45.2667 254.266 46 254.226 46.6784 254.317C47.4331 254.117 47.6076 253.311 47.7067 252.654C47.692 252.63 47.6772 252.608 47.6605 252.587C49.4044 242.443 55.6605 233.68 62.6751 226.13C64.6072 223.971 66.502 221.724 67.8146 219.159C70.481 213.798 70.9593 207.765 72.9992 202.195C74.7176 197.137 77.0143 192.286 79.266 187.429C80.1688 193.827 81.8548 200.119 82.0481 206.607C82.3421 214.815 80.5315 222.903 79.7591 231.046C78.643 239.656 79.2376 248.31 79.1668 256.941H79.2148C79.1965 259.022 79.1399 261.194 79.0102 263.269C79.0151 264.028 79.1132 264.743 79.0052 265.501C78.9455 265.921 79.2475 266.185 79.5651 266.194C80.7315 266.958 82.1971 267.23 83.538 267.557C83.9095 267.84 83.7488 268.54 83.8145 268.967C83.9585 271.371 84.1488 273.185 83.9144 275.609C82.6028 277.546 81.6579 277.236 81.2932 280.181C81.0923 283.254 80.6501 286.578 81.995 289.368C81.3932 289.505 81.1647 291.34 81.2549 291.825C81.4078 293.195 82.6165 293.628 83.785 294.1C92.324 297.296 110.468 302.557 119.242 298.939C119.87 299.294 120.571 298.598 120.774 298.038C121.043 297.355 120.796 296.694 120.746 296.016Z" fill="black"/>
</g>
</g>
<g id="Group 6">
<g id="head/Short 6">
<path id="&#226;&#156;&#139; Skin_2" fill-rule="evenodd" clip-rule="evenodd" d="M96.9479 39.1814C96.6707 36.7456 97.0294 31.6543 97.0535 31.345C97.2054 29.3896 96.2892 21.6679 94.5572 22.3794C91.6518 20.0793 87.782 19.5714 84.1634 19.3288C76.6472 18.8248 68.6512 19.9818 62.8474 25.0401C59.9771 27.667 57.1828 31.4876 57.4074 35.4657C54.7996 39.2365 51.1232 44.409 54.3724 48.8173C55.4769 50.2257 57.2322 50.7502 58.6197 51.8168C61.4105 54.0678 63.1613 57.2983 65.9786 59.5358C73.4424 66.2428 86.116 67.6439 93.4492 60.0153C99.1198 54.4903 98.2029 46.2248 97.2054 39.1814C96.5349 34.446 97.4887 43.9333 96.9479 39.1814Z" fill="#D09A5B"/>
<path id="&#240;&#159;&#150;&#141; Ink_2" fill-rule="evenodd" clip-rule="evenodd" d="M74.1228 8.99952C76.1329 8.59388 78.1971 8.34148 80.2498 8.41746L80.4081 8.42361C81.9527 8.48534 83.9087 8.62189 85.2561 9.52003C85.3336 9.44225 85.4583 9.40233 85.5713 9.45628C87.1725 10.2206 88.9336 10.7731 90.6195 11.3222C92.2977 11.8686 94.0388 12.2293 95.7977 12.3747C96.4595 12.4294 97.0258 13.144 96.6068 13.7849C96.5071 13.9376 96.41 14.0919 96.3133 14.2466C96.475 14.2297 96.6368 14.2123 96.7985 14.196C97.3308 14.1424 97.8625 14.7104 97.8309 15.2286C97.8112 15.5545 97.7761 15.8766 97.724 16.1948C97.9267 16.1905 98.1283 16.2209 98.323 16.3032C99.3089 16.7196 99.2402 17.8938 99.1664 18.7873C99.0642 20.0271 98.6005 21.3404 97.7395 22.2683C98.3823 22.936 98.8374 23.7334 99.1089 24.6804C99.3058 25.3719 99.4154 26.1085 99.3613 26.8284L99.344 27.0439C99.2771 27.825 99.1442 28.6899 98.5822 29.2519C98.2937 29.5416 97.9383 29.6472 97.5995 29.6137C97.8044 31.414 97.9357 33.2246 98.0594 35.0287L98.1173 35.891C98.3931 40.0607 98.6003 44.2576 98.5461 48.4341C98.4958 52.3373 97.7245 56.1258 95.3306 59.295C93.1503 62.1808 90.02 64.3082 86.4787 65.1169C84.5702 65.5534 82.6219 65.5843 80.6903 65.3062C79.7539 65.171 78.8114 64.9636 77.9228 64.6365C76.9391 64.2734 76.2321 63.739 75.5702 62.938C75.2571 62.5581 75.4078 61.7494 76.0312 61.8254C76.974 61.9397 77.8347 62.0775 78.7385 62.3563L78.868 62.3972C79.7682 62.6856 80.7006 62.9007 81.6418 62.9921C83.5697 63.1788 85.5269 62.9908 87.3737 62.4062C90.3805 61.4532 92.9702 59.3298 94.6301 56.6615C96.6003 53.4988 96.8231 49.9086 96.7947 46.272C96.7642 42.2815 96.6344 38.2887 96.4225 34.3023L96.3865 33.6379C96.2744 31.5866 96.1662 29.5339 96.0711 27.4812C96.0415 26.8374 95.9964 26.1883 95.9151 25.5458C95.1722 25.1105 94.5065 24.5104 94.0725 23.77C93.2007 24.1305 92.2838 24.3907 91.4402 24.598C89.4862 25.0786 87.4575 25.1952 85.4686 24.8943C84.9321 25.1159 84.3849 25.3107 83.8294 25.4784C83.6792 25.545 83.5291 25.6104 83.3791 25.6745C82.0397 26.2476 80.6811 26.7331 79.2673 27.0885L78.92 27.1751C78.1759 27.3585 77.3678 27.5391 76.5759 27.5958C76.4458 27.6461 76.3055 27.6886 76.1521 27.7259C75.4311 27.901 74.6828 27.9564 73.9438 27.8946C73.2238 27.8341 72.7035 27.1065 73.1002 26.4253C73.3899 25.9282 73.6823 25.4324 73.9772 24.9379C72.9509 25.3655 71.8911 25.7209 70.8223 26.0222C69.7431 26.3261 68.6485 26.5824 67.5525 26.8181C66.9666 26.943 66.3783 27.0537 65.7936 27.1786C65.3751 27.2675 64.7325 27.3138 64.3911 27.5894C64.014 27.892 63.9071 28.5977 63.764 29.033C63.576 29.5983 63.3996 30.1662 63.2386 30.7405C62.9181 31.8866 62.6554 33.0494 62.4519 34.2239C62.2485 35.3996 62.1118 36.5869 62.0358 37.778C61.96 38.9679 61.9934 40.1655 61.8711 41.3503C61.8053 41.9787 61.1307 42.3019 60.6323 41.8628C60.5739 41.8113 60.5149 41.7592 60.4566 41.7065L60.3696 41.6271C59.9433 41.2408 59.5299 40.8313 59.1888 40.3703C59.127 40.2853 59.0677 40.1964 59.0124 40.1063C59.0033 40.1063 58.9956 40.1037 58.9866 40.0973L58.892 40.0261C57.8505 39.2509 56.1106 38.2403 55.095 39.5281C54.7714 39.9384 54.6057 40.4608 54.4682 40.9647L54.2269 41.8667C54.0709 42.4556 53.924 43.0477 53.8381 43.6502C53.6436 44.9997 53.7415 46.5553 54.6701 47.637C55.0409 48.0697 55.5522 48.3788 56.1225 48.4599C56.4407 48.5037 56.7549 48.4496 57.0704 48.4097C57.3911 48.3698 57.7 48.4341 58.0208 48.4032C58.5307 48.353 58.7535 48.9634 58.5629 49.3471C58.4599 49.5532 58.3387 49.7309 58.2011 49.8816C58.3117 49.9769 58.4174 50.0799 58.5191 50.188C58.8205 50.2846 59.0908 50.492 59.2931 50.7662C59.4566 50.9877 59.5415 51.2285 59.5558 51.4822C59.5737 51.5453 59.5891 51.6097 59.6034 51.6754L59.8797 52.1238C59.9405 52.2221 60.001 52.3193 60.0617 52.4146C60.7648 53.522 61.5453 54.4595 62.515 55.3429C63.4486 56.1928 64.462 56.9539 65.339 57.8656L65.4424 57.9738C66.26 58.8355 67.1219 59.8785 66.8019 61.1313C66.7195 61.4532 66.27 61.685 65.9765 61.4674C65.0326 60.7669 64.5573 59.6568 63.7564 58.8069C62.9321 57.9313 62.0191 57.1444 61.1925 56.2714C60.4107 55.4472 59.7939 54.5136 59.3291 53.486C59.1436 53.6907 58.8733 53.8362 58.4985 53.8929C57.8547 53.9895 57.2544 53.6122 56.9738 53.0546C56.7934 53.1344 56.6094 53.2065 56.4239 53.2632C55.4477 53.5619 54.8336 52.4764 55.2019 51.6741C55.3988 51.244 55.6448 50.8706 55.9501 50.5563C54.9957 50.425 54.0248 49.9318 53.3977 49.3162C51.8242 47.7697 51.6078 45.4453 51.9619 43.3785C52.15 42.2826 52.4743 41.1738 52.8956 40.1449C52.9688 39.9659 53.0475 39.7856 53.1337 39.6079C53.086 39.6066 53.0371 39.586 53.0062 39.5461C52.7216 39.1572 52.3753 38.8391 52.164 38.4039C51.9695 38.0047 51.7533 37.6003 51.6 37.1844C51.2846 36.3332 51.1301 35.3725 51.027 34.4724C50.8146 32.6296 50.8969 30.7985 51.179 28.9673C51.6592 25.8484 52.8192 22.8636 54.5282 20.2446C54.4351 20.1957 54.3459 20.1367 54.2628 20.0669L54.2218 20.0311L54.1551 19.9709C53.6674 19.5295 53.7095 18.7024 54.1551 18.2554L54.2958 18.1144C54.474 17.9374 54.6277 17.7971 54.9155 17.6044C54.958 17.5759 55.0014 17.5491 55.0453 17.5241C54.8947 17.2457 54.8424 16.9202 54.9473 16.561C55.313 15.3099 57.1133 15.3542 58.2544 15.8998C59.5168 14.7731 60.9165 13.7951 62.4338 13.0031C66.0473 11.1179 70.1332 9.80307 74.1228 8.99952ZM55.444 41.9529C56.1188 41.7327 57.0151 42.195 57.6216 42.4732C58.3904 42.826 59.0446 43.3475 59.6782 43.8987C59.9936 44.1743 60.0502 44.625 59.9718 45.01C59.9639 45.0487 59.9563 45.0886 59.9472 45.1285C59.8635 45.5393 59.405 45.8625 58.9994 45.8509C58.1508 45.8277 57.7465 45.095 57.2661 44.4743C57.2095 44.5748 57.1387 44.6675 57.051 44.737L56.9918 44.7834C56.7925 44.9352 56.5727 45.0565 56.3093 45.0448C56.1226 45.0358 55.9437 44.9881 55.7787 44.9019C55.3667 44.6842 55.1852 44.1511 55.2971 43.7171C55.3667 43.4441 55.5263 43.2304 55.7349 43.0823L55.6572 43.0291C55.4908 42.9133 55.339 42.7912 55.2208 42.6111L55.1941 42.5685H55.2044C55.0756 42.347 55.1595 42.0456 55.444 41.9529Z" fill="black"/>
</g>
</g>
<g id="Group 3">
<g id="face/Calm">
<path id="&#240;&#159;&#150;&#141; Ink_3" fill-rule="evenodd" clip-rule="evenodd" d="M85.2536 56.0684C84.1957 56.3748 83.0602 56.4022 81.9819 56.0858C81.0038 55.7987 79.9996 55.1671 79.2797 54.3312C78.6403 53.5887 78.2261 52.6864 78.2424 51.7233C78.2443 51.6132 78.2836 51.5214 78.3441 51.4502C78.4092 51.3734 78.5002 51.3208 78.5977 51.2979C78.6979 51.2744 78.8039 51.2827 78.8941 51.3237C78.9758 51.3608 79.0457 51.4238 79.0895 51.5159C79.2001 51.6612 79.3103 51.8044 79.421 51.9436C80.3104 53.0419 81.1718 53.8627 82.5093 54.1571C83.235 54.3169 83.9598 54.246 84.6248 54.0023C85.3367 53.7414 85.9802 53.2826 86.4844 52.6955C86.7123 52.4302 86.9814 52.3219 87.2444 52.3201C87.5426 52.318 87.8372 52.4566 88.0592 52.678C88.2774 52.8956 88.4235 53.1914 88.4368 53.5007C88.4484 53.7723 88.3598 54.0559 88.1242 54.3089C87.348 55.1425 86.342 55.7531 85.2536 56.0684ZM85.2209 42.3124C86.3053 42.9715 87.9576 44.5085 86.791 46.1426C85.4179 47.5835 83.4408 45.9315 82.4666 45.1843C81.5632 44.6053 80.5482 46.0945 81.3864 46.7706C88.4263 51.9828 91.2833 42.4847 85.7694 41.5374C85.1623 41.433 84.9368 42.1085 85.2209 42.3124ZM75.0769 39.412C74.7283 39.1891 74.3183 39.1126 73.8639 39.3193C73.5089 39.4808 72.8861 40.0191 72.4527 40.7268C72.1562 41.2109 71.9459 41.7788 71.9897 42.3704C71.9998 42.5078 71.9491 42.6091 71.869 42.684C71.8058 42.7431 71.7144 42.7866 71.6071 42.8002C71.516 42.8117 71.4141 42.8013 71.3312 42.7754C71.1735 42.7262 71.09 42.6239 71.0585 42.5404C70.7551 41.7345 70.8858 40.8351 71.2259 40.0238C71.6849 38.9288 72.5185 38.0116 73.0646 37.7158C73.9991 37.2096 75.1016 37.1863 76.0374 37.702C76.8341 38.141 77.3322 38.8496 77.8276 39.5719C77.9329 39.7255 78.0374 39.8779 78.1455 40.0276C78.362 40.3277 78.3835 40.6253 78.2997 40.8804C78.2068 41.1631 77.97 41.4017 77.6738 41.5266C77.4001 41.642 77.0824 41.6582 76.8013 41.5396C76.5638 41.4395 76.3458 41.2442 76.2079 40.9129C75.9757 40.355 75.5887 39.7394 75.0769 39.412ZM92.7782 40.6534C92.5395 40.7777 92.3528 40.8152 92.088 40.7359C91.9416 40.6919 91.7968 40.6076 91.6835 40.4943C91.5713 40.382 91.4902 40.2424 91.4587 40.0875C91.3813 39.7052 91.1721 39.3473 90.874 39.114C90.6192 38.9146 90.2976 38.8089 89.9409 38.8685C89.556 38.9328 89.1893 39.1797 88.9367 39.4707C88.8523 39.5681 88.7861 39.6787 88.7196 39.7886C88.5951 39.994 88.4742 40.185 88.3025 40.3359C88.2375 40.3933 88.1395 40.433 88.0445 40.433C88.0059 40.433 87.9667 40.4268 87.9294 40.4151C87.5463 40.0306 87.4726 39.7389 87.485 39.4496C87.4979 39.1462 87.6176 38.839 87.8109 38.5523C88.2643 37.88 89.1252 37.3287 89.7062 37.2039C90.5018 37.0329 91.292 37.2381 91.9255 37.6825C92.5773 38.1398 93.0604 38.8497 93.211 39.6497C93.2472 39.8424 93.2318 40.0504 93.1584 40.2307C93.0867 40.4069 92.9617 40.5578 92.7782 40.6534ZM76.8316 32.2437C76.3541 32.7089 75.789 32.781 75.2173 32.8451C74.8996 32.881 74.646 32.91 74.3965 32.9663C73.7106 33.1211 73.0326 33.3543 72.414 33.6902C71.7674 34.0412 71.0628 34.4646 70.5558 35.007C70.4353 35.1361 70.3217 35.2715 70.2079 35.4073C70.1041 35.531 70.0042 35.6502 69.8988 35.7651C69.7778 35.8971 69.6629 36.0354 69.5487 36.1733C69.478 36.2897 69.4641 36.3183 69.4498 36.3481C69.4284 36.3929 69.4035 36.443 69.3751 36.4968C69.3361 36.5704 69.2905 36.651 69.2427 36.7241C69.1632 36.8577 69.1205 36.8945 69.0836 36.9109C69.0224 36.9382 68.9644 36.9516 68.9081 36.9443C68.8553 36.9375 68.8056 36.9122 68.7565 36.8707C68.5114 36.6636 68.4391 36.3237 68.4465 35.9628C68.4577 35.4153 68.6597 34.8091 68.8458 34.4365C69.2787 33.5706 69.8791 32.6704 70.6009 32.0242C71.4246 31.2865 72.3258 30.728 73.3609 30.3432C74.0041 30.104 74.7489 29.8844 75.4497 29.9121C75.9541 29.9321 76.4357 30.082 76.8334 30.4565C77.0776 30.6864 77.1948 31.0133 77.1948 31.3401C77.1948 31.6733 77.073 32.0085 76.8316 32.2437ZM93.7493 36.5037C93.7189 36.5535 93.6769 36.5878 93.6301 36.6084C93.5811 36.63 93.5264 36.6362 93.4739 36.6273C93.4216 36.6185 93.3719 36.5948 93.3324 36.5586C93.2947 36.5239 93.2659 36.4778 93.253 36.4214C92.936 35.0291 92.3205 33.9932 91.0067 33.3252C90.3604 32.9966 89.6172 32.7878 88.9137 32.6213C88.7093 32.5729 88.4932 32.5416 88.2757 32.5098C87.5939 32.4103 86.9072 32.2963 86.4627 31.7452C86.1949 31.4132 86.0825 30.9886 86.146 30.6004C86.2058 30.2348 86.4195 29.8996 86.8078 29.6987C87.7746 29.1988 88.9761 29.6893 89.9524 30.1072C90.0248 30.1382 90.0959 30.1686 90.1655 30.1979C91.1202 30.6009 91.991 31.1329 92.7068 31.8937C93.2748 32.4972 93.801 33.3895 94.0129 34.3073C94.1893 35.071 94.1478 35.8505 93.7493 36.5037Z" fill="black"/>
</g>
</g>
</g>
<path id="&#240;&#159;&#150;&#141; Ink_4" fill-rule="evenodd" clip-rule="evenodd" d="M92.0561 33.3441C94.8386 33.3441 96.4264 33.9423 97.0083 33.989L97.0258 33.9902C97.2678 34.0057 97.4849 34.0259 97.7127 34.114C98.5503 34.4365 98.6867 35.3149 98.1979 35.8684C98.1636 37.0139 98.3143 38.3522 98.0558 39.5014C97.7369 44.3458 95.4584 45.1633 94.1632 45.4617C93.513 45.6116 92.7423 45.6712 92.0516 45.513C90.8733 45.4691 89.7084 45.1003 88.7118 44.458C87.3237 43.5629 86.2928 42.187 85.9582 40.5542C85.7997 39.7759 85.7255 38.9658 85.8118 38.1747L85.8246 38.0656C85.3735 37.8499 84.8506 37.809 84.3117 37.79C84.0542 37.7808 83.8005 37.7726 83.5539 37.7836C83.313 37.8105 83.0749 37.8463 82.8361 37.8951C82.5753 37.9738 82.329 38.1036 82.1016 38.3093L82.0859 38.6094C82.0432 39.3593 81.9447 40.1113 81.7929 40.847C81.5687 41.9324 81.208 42.9691 80.4404 43.739C80.1806 44.127 79.8591 44.4734 79.4688 44.7733C78.051 45.8648 76.1247 46.2656 74.3568 46.1146C70.7677 45.8084 68.6931 42.9596 68.215 41.7419L68.1864 41.6681C67.841 40.7629 67.5658 39.5883 66.4744 39.3938L66.2423 39.3521C65.7443 39.2586 65.2848 39.1285 64.9928 38.6427C64.8648 38.4306 64.7989 38.1934 64.7828 37.9515C64.6124 37.9646 64.4423 37.9771 64.2728 37.9892C62.9204 38.2752 54.8088 38.5177 54.1613 38.5177C54.1613 38.5177 52.9167 39.0415 52.3912 38.6356C52.027 38.3534 51.9072 37.9773 52.1077 37.5512C52.4102 36.9102 53.8059 36.5245 54.4256 36.4024C54.4256 36.4024 64.4265 36.4855 65.1463 36.349C65.5917 35.8899 66.3883 35.9527 67.054 35.8801C67.605 35.4872 68.3759 35.2241 68.9849 35.0479C69.109 35.0009 69.2319 34.9554 69.3514 34.9126C70.4677 34.5151 71.6281 34.3045 72.8062 34.1915C74.021 34.076 75.2394 34.1283 76.4471 34.2937C76.9561 34.3627 77.4603 34.452 77.9609 34.5688C78.8574 34.6869 79.7486 34.8816 80.6454 35.1124L80.8248 35.1591C81.7692 35.4066 82.7396 35.6208 83.7172 35.4529C84.513 35.3172 85.2784 35.011 86.0122 34.6798L86.1077 34.6365C87.7211 33.8999 90.2409 33.3441 92.0561 33.3441ZM77.8638 36.0373C77.2685 35.9064 77.0143 36.8241 77.6115 36.9554C78.0344 37.0484 78.3928 37.2616 78.635 37.6229L78.6605 37.6622C78.9854 38.1792 79.8071 37.7019 79.4799 37.1816C79.1118 36.596 78.5397 36.1859 77.8638 36.0373ZM95.3 35.4683C95.0901 35.3205 94.7725 35.4302 94.6507 35.6391C94.5166 35.8691 94.6045 36.1252 94.8011 36.2757L94.8211 36.2904C95.0014 36.4174 95.1769 36.6452 95.199 36.8785L95.2009 36.9077C95.2246 37.5184 96.1738 37.5215 96.15 36.9077C96.1269 36.3073 95.7792 35.8056 95.3 35.4683Z" fill="black"/>
</g>
</svg>
