<svg width="52" height="55" viewBox="0 0 52 55" fill="none" xmlns="http://www.w3.org/2000/svg">
<path id="Vector" d="M16.7804 45.7898C16.7804 43.781 15.1007 42.7766 11.7414 42.7766C8.52452 42.7766 6.91611 43.8212 6.91611 45.9104C6.91611 47.9393 8.66704 48.9537 12.1689 48.9537C15.2432 48.9537 16.7804 47.8991 16.7804 45.7898ZM14.9785 23.0399C14.9785 21.8145 14.6732 20.79 14.0624 19.9664C13.4516 19.1428 12.5456 18.731 11.3443 18.731C8.81974 18.731 7.55744 20.1874 7.55744 23.1002C7.55744 25.8121 8.81974 27.168 11.3443 27.168C13.7671 27.168 14.9785 25.792 14.9785 23.0399ZM23.1937 13.277V19.3638C22.4607 19.6048 21.6565 19.8258 20.7811 20.0267C21.1068 20.8905 21.2697 21.7342 21.2697 22.5578C21.2697 25.109 20.5266 27.2835 19.0403 29.0814C17.5541 30.8793 15.5486 32.0093 13.024 32.4713C12.2096 32.632 11.6039 32.9032 11.2069 33.2849C10.8099 33.6666 10.6114 34.2491 10.6114 35.0326C10.6114 35.6553 10.8404 36.1726 11.2985 36.5844C11.7566 36.9962 12.3471 37.3176 13.0698 37.5486C13.7926 37.7796 14.5917 38.0006 15.4672 38.2115C16.3426 38.4225 17.2181 38.6786 18.0936 38.9799C18.9691 39.2812 19.7682 39.6579 20.4909 40.1099C21.2137 40.5619 21.8041 41.2047 22.2622 42.0384C22.7203 42.872 22.9494 43.8614 22.9494 45.0064C22.9494 51.1132 19.2541 54.1666 11.8635 54.1666C10.4587 54.1666 9.13531 54.0411 7.89337 53.79C6.65143 53.5389 5.47057 53.1271 4.35078 52.5546C3.231 51.982 2.34026 51.1584 1.67857 50.0837C1.01688 49.009 0.686035 47.7284 0.686035 46.2418C0.686035 42.9273 2.53877 40.6673 6.24423 39.462V39.3415C4.88013 38.5179 4.19808 37.2523 4.19808 35.5448C4.19808 33.3552 4.83942 31.9792 6.12208 31.4167V31.2962C4.65618 30.8141 3.43969 29.7243 2.4726 28.0268C1.50551 26.3293 1.02197 24.667 1.02197 23.0399C1.02197 20.2476 1.98906 17.9224 3.92323 16.0643C5.8574 14.2061 8.24967 13.277 11.1 13.277C13.0546 13.277 14.8666 13.7491 16.5361 14.6932C18.5313 14.6932 20.7505 14.2212 23.1937 13.277ZM32.9053 39.8236H26.1255C26.2069 38.9197 26.2476 37.5737 26.2476 35.7859V17.4353C26.2476 15.547 26.2069 14.2613 26.1255 13.5783H32.9053C32.8238 14.2412 32.7831 15.4867 32.7831 17.3148V35.7859C32.7831 37.5737 32.8238 38.9197 32.9053 39.8236ZM51.2595 33.1342V39.0402C49.814 39.8236 48.0427 40.2153 45.9457 40.2153C44.6834 40.2153 43.5941 40.0145 42.6779 39.6127C41.7617 39.2109 41.0492 38.7087 40.5402 38.1061C40.0312 37.5034 39.6291 36.72 39.3338 35.7558C39.0386 34.7915 38.8503 33.8675 38.7689 32.9836C38.6874 32.0997 38.6467 31.0652 38.6467 29.8799V19.3035H38.7078V19.183C38.5653 19.183 38.3719 19.1729 38.1275 19.1528C37.8832 19.1327 37.7 19.1227 37.5778 19.1227C37.1503 19.1227 36.5497 19.183 35.776 19.3035V13.5783H38.7078V11.2883C38.7078 10.2035 38.6467 9.30958 38.5245 8.6065H45.457C45.3349 9.43011 45.2738 11.0874 45.2738 13.5783H50.4961V19.3035C50.1907 19.3035 49.7478 19.2834 49.1676 19.2432C48.5873 19.203 48.1547 19.183 47.8697 19.183H45.2738V30.1813C45.2738 32.8128 46.1594 34.1286 47.9307 34.1286C49.1727 34.1286 50.2823 33.7972 51.2595 33.1342ZM33.6688 4.59889C33.6688 5.76401 33.2717 6.78349 32.4777 7.65733C31.6837 8.53117 30.7064 8.96808 29.5459 8.96808C28.3651 8.96808 27.3674 8.53117 26.553 7.65733C25.7387 6.78349 25.3315 5.76401 25.3315 4.59889C25.3315 3.41369 25.7336 2.37914 26.5378 1.49526C27.342 0.611375 28.3447 0.169434 29.5459 0.169434C30.7268 0.169434 31.7091 0.616397 32.493 1.51032C33.2768 2.40425 33.6688 3.43377 33.6688 4.59889Z" fill="#39B3F8"/>
</svg>
