<svg width="47" height="50" viewBox="0 0 47 50" fill="none" xmlns="http://www.w3.org/2000/svg">
<path d="M46.3444 1.41599C46.1223 1.17617 45.852 0.984628 45.5508 0.853555C45.2495 0.722482 44.924 0.654748 44.5948 0.654663H3.18842C2.85925 0.654786 2.53372 0.722527 2.23251 0.853578C1.9313 0.984629 1.66102 1.17612 1.43884 1.41588C1.21667 1.65564 1.04746 1.93841 0.941987 2.24622C0.836513 2.55403 0.797079 2.88014 0.826192 3.20381L4.43087 43.0024C4.47363 43.4767 4.66193 43.9268 4.97064 44.2926C5.27934 44.6584 5.69375 44.9225 6.15853 45.0497L23.2338 49.7319C23.4404 49.7888 23.6539 49.8176 23.8684 49.8177C24.0824 49.8175 24.2955 49.789 24.5018 49.7331L41.6234 45.0509C42.0884 44.9235 42.503 44.6592 42.8119 44.2932C43.1207 43.9272 43.3093 43.4769 43.3522 43.0024L46.9569 3.20381C46.9861 2.88016 46.9467 2.55407 46.8412 2.24627C46.7358 1.93847 46.5666 1.65571 46.3444 1.41599V1.41599ZM38.7737 40.9711L23.8696 45.0474L9.00952 40.9722L5.78113 5.33685H42.0021L38.7737 40.9711ZM13.9783 26.4067H30.3298L29.554 34.0644L23.4643 36.2112L15.9619 33.566C15.6685 33.4622 15.3572 33.4164 15.0458 33.4314C14.7345 33.4464 14.4292 33.5218 14.1474 33.6534C13.8655 33.7849 13.6128 33.97 13.4035 34.1981C13.1942 34.4262 13.0325 34.6927 12.9277 34.9825C12.8228 35.2723 12.7768 35.5797 12.7924 35.887C12.808 36.1944 12.8848 36.4957 13.0184 36.7737C13.152 37.0517 13.3398 37.301 13.5711 37.5074C13.8023 37.7137 14.0725 37.873 14.3662 37.9761L22.6665 40.9025C23.1825 41.0839 23.7461 41.0839 24.2621 40.9025L32.5624 37.9761C32.985 37.827 33.3562 37.5625 33.6327 37.2135C33.9092 36.8645 34.0797 36.4452 34.1245 36.0043L35.3102 24.2988C35.343 23.9734 35.3064 23.6447 35.2027 23.3341C35.099 23.0235 34.9306 22.7377 34.7083 22.4952C34.486 22.2527 34.2148 22.0589 33.912 21.9261C33.6092 21.7934 33.2816 21.7247 32.9503 21.7245H16.124L15.413 14.7012H34.136C34.765 14.7012 35.3682 14.4546 35.8129 14.0155C36.2576 13.5765 36.5075 12.981 36.5075 12.3601C36.5075 11.7392 36.2576 11.1438 35.8129 10.7047C35.3682 10.2657 34.765 10.019 34.136 10.019H12.7925C12.4612 10.0192 12.1336 10.0879 11.8308 10.2207C11.5281 10.3534 11.2568 10.5473 11.0345 10.7898C10.8122 11.0323 10.6438 11.318 10.5401 11.6286C10.4365 11.9393 10.3998 12.2679 10.4326 12.5933L11.6184 24.2988C11.677 24.8765 11.9509 25.412 12.387 25.8015C12.8231 26.191 13.3902 26.4067 13.9783 26.4067Z" fill="#39B3F8"/>
</svg>
