<svg width="52" height="57" viewBox="0 0 52 57" fill="none" xmlns="http://www.w3.org/2000/svg">
<path d="M32.8228 36.1958C30.7196 36.4008 28.6008 36.015 26.7048 35.0818C26.2753 34.7382 25.9208 34.3102 25.6632 33.8242C25.4055 33.3382 25.2503 32.8045 25.207 32.2562C25.2061 32.1741 25.1889 32.0931 25.1565 32.0177C25.1241 31.9423 25.0771 31.8741 25.0181 31.817C24.9592 31.7599 24.8895 31.7151 24.8131 31.6851C24.7367 31.6552 24.6551 31.6407 24.5731 31.6424C23.6875 31.6317 22.8021 31.634 21.9168 31.6412C21.762 31.6255 21.6073 31.6713 21.4861 31.7688C21.365 31.8664 21.2872 32.0077 21.2695 32.1623C21.2191 33.1243 21.3817 34.0857 21.7458 34.9776C22.1099 35.8695 22.6666 36.6699 23.3759 37.3217C25.1667 38.7191 27.341 39.537 29.6088 39.6663C31.9716 39.9404 34.363 39.8389 36.6942 39.3655C38.4842 39.0316 40.1253 38.1472 41.3884 36.8357C42.0867 35.9747 42.5547 34.9504 42.7485 33.8589C42.9423 32.7674 42.8554 31.6446 42.4961 30.5959C42.1943 29.8566 41.7272 29.1963 41.1307 28.6656C40.5341 28.1349 39.8239 27.7479 39.0545 27.5343C35.472 26.2772 31.602 26.3723 27.9498 25.4171C27.3157 25.2175 26.541 25.0009 26.2584 24.3296C26.0951 23.8572 26.0839 23.3455 26.2265 22.8665C26.3691 22.3874 26.6583 21.9651 27.0533 21.659C28.2001 21.0036 29.5058 20.6785 30.826 20.7196C32.6177 20.551 34.4238 20.8094 36.0963 21.4737C36.5987 21.7692 37.0308 22.1705 37.3625 22.6498C37.6943 23.129 37.9177 23.6747 38.0173 24.249C38.0221 24.4185 38.09 24.5801 38.2078 24.702C38.3256 24.824 38.4847 24.8975 38.6539 24.9082C39.5331 24.9261 40.4127 24.913 41.2919 24.9142C41.4444 24.9324 41.5983 24.895 41.7254 24.8088C41.8525 24.7226 41.9443 24.5934 41.9837 24.445C41.9915 23.2591 41.6894 22.0916 41.1072 21.0584C40.525 20.0251 39.683 19.1619 38.6645 18.5542C35.8534 17.2569 32.7331 16.7794 29.6627 17.1768V17.1766C27.4131 17.2688 25.2637 18.1324 23.5757 19.6224C22.8007 20.4576 22.2759 21.4938 22.0611 22.6127C21.8463 23.7317 21.9501 24.8885 22.3606 25.9513C22.6802 26.6633 23.1504 27.2975 23.7387 27.8103C24.3271 28.323 25.0196 28.702 25.7686 28.9213C29.3392 30.2109 33.2525 29.7971 36.8577 30.9375C37.5602 31.1758 38.3784 31.5403 38.5936 32.3223C38.7093 32.7909 38.7005 33.2816 38.5682 33.7458C38.436 34.21 38.1847 34.6316 37.8394 34.9688C36.34 35.9003 34.5829 36.33 32.8228 36.1958V36.1958ZM49.0992 12.5728C42.128 8.63071 35.1552 4.69215 28.1808 0.75715C27.4811 0.365851 26.6927 0.1604 25.8909 0.1604C25.0891 0.1604 24.3008 0.365851 23.601 0.75715C16.6537 4.68025 9.70611 8.60316 2.75814 12.5259C2.08222 12.8943 1.51719 13.4369 1.12164 14.0973C0.7261 14.7577 0.514456 15.5119 0.508667 16.2817V39.9854C0.519792 40.7692 0.742832 41.5353 1.15413 42.2026C1.56543 42.8699 2.14966 43.4134 2.84485 43.7755C4.84064 44.8619 6.77971 46.0588 8.81168 47.0729C9.98447 47.6999 11.2871 48.0453 12.6165 48.0818C13.9458 48.1184 15.2654 47.845 16.4709 47.2834C17.3729 46.7184 18.1068 45.9218 18.5963 44.9767C19.0857 44.0315 19.3127 42.9724 19.2536 41.9097C19.2691 34.0869 19.2559 26.2638 19.2595 18.4409C19.2731 18.3553 19.2685 18.2679 19.246 18.1843C19.2235 18.1006 19.1835 18.0227 19.1288 17.9556C19.0741 17.8885 19.0058 17.8337 18.9284 17.7948C18.851 17.7559 18.7663 17.7338 18.6798 17.73C17.792 17.7156 16.9028 17.7216 16.0151 17.7276C15.9329 17.7202 15.85 17.7303 15.772 17.7572C15.694 17.784 15.6225 17.8271 15.5623 17.8836C15.5021 17.94 15.4545 18.0085 15.4226 18.0846C15.3907 18.1608 15.3753 18.2428 15.3773 18.3253C15.3654 26.0979 15.3797 33.8727 15.3702 41.6464C15.3722 42.183 15.2101 42.7074 14.9056 43.1492C14.6011 43.5911 14.1688 43.9292 13.6667 44.1184C13.0885 44.2893 12.4807 44.3363 11.883 44.2563C11.2854 44.1763 10.7114 43.9711 10.1984 43.6542C8.34947 42.6099 6.50055 41.5657 4.65167 40.5217C4.52916 40.4636 4.42738 40.3694 4.36005 40.2517C4.29271 40.1341 4.26305 39.9986 4.27506 39.8635C4.27506 32.043 4.27506 24.2229 4.27506 16.4031C4.2622 16.251 4.29775 16.0987 4.37662 15.968C4.45548 15.8373 4.57364 15.7348 4.71421 15.6753C11.6387 11.7753 18.5618 7.87131 25.4836 3.96319C25.6039 3.88109 25.7461 3.83726 25.8917 3.83748C26.0373 3.83769 26.1794 3.88193 26.2994 3.96439C33.2236 7.86556 40.1475 11.7681 47.0711 15.672C47.211 15.7332 47.3283 15.8365 47.4066 15.9676C47.4849 16.0987 47.5203 16.251 47.5078 16.4032C47.5066 24.2223 47.5058 32.0421 47.5054 39.8625C47.5177 39.9981 47.4887 40.1342 47.4224 40.2531C47.356 40.372 47.2554 40.4682 47.1336 40.529C40.3152 44.3845 33.4931 48.2344 26.6674 52.0787C26.3413 52.2603 25.9553 52.5526 25.5739 52.3326C23.7863 51.3207 22.0205 50.2695 20.2388 49.2481C20.1477 49.1784 20.0379 49.1375 19.9235 49.1306C19.809 49.1238 19.6951 49.1512 19.5963 49.2095C18.8116 49.6693 17.9856 50.0548 17.129 50.3608C16.7429 50.5172 16.2677 50.5618 16.0019 50.92C16.3407 51.2886 16.7512 51.5843 17.2083 51.7888C19.292 52.9953 21.3768 54.2007 23.4627 55.4051C24.1526 55.8383 24.946 56.0788 25.7603 56.1014C26.5747 56.124 27.3802 55.928 28.0931 55.5338C35.0414 51.6159 41.9894 47.6962 48.937 43.7748C49.6316 43.412 50.2154 42.8684 50.6268 42.2015C51.0382 41.5345 51.262 40.7689 51.2744 39.9853V16.2817C51.2686 15.5271 51.0646 14.7873 50.6828 14.1364C50.3011 13.4854 49.755 12.9463 49.0993 12.5728H49.0992Z" fill="#39B3F8"/>
</svg>
