<svg width="59" height="66" viewBox="0 0 59 66" fill="none" xmlns="http://www.w3.org/2000/svg">
<path d="M26.9734 28.3083C25.9782 28.8828 25.1757 29.7396 24.6675 30.7702C24.1592 31.8008 23.968 32.959 24.118 34.0983C24.268 35.2376 24.7525 36.3068 25.5102 37.1708C26.2679 38.0347 27.2647 38.6546 28.3747 38.952C29.4847 39.2493 30.6579 39.2109 31.7461 38.8415C32.8342 38.4721 33.7883 37.7883 34.4878 36.8766C35.1874 35.9649 35.6008 34.8663 35.6759 33.7196C35.751 32.573 35.4844 31.4298 34.9098 30.4346C34.1392 29.1003 32.8703 28.1267 31.3819 27.7279C29.8936 27.3292 28.3078 27.5379 26.9734 28.3083ZM53.0143 34.6119C52.6329 34.176 52.2304 33.7389 51.8069 33.3006C52.1027 32.9897 52.389 32.679 52.6657 32.3686C57.8898 26.499 60.0946 20.6125 58.0517 17.0735C56.0927 13.6804 50.2653 12.6693 42.97 14.0878C42.2514 14.2284 41.5368 14.3869 40.8261 14.5635C40.6901 14.0945 40.5454 13.6282 40.3921 13.1646C37.9172 5.70656 33.9193 0.855341 29.8331 0.857911C25.9149 0.8597 22.128 5.40294 19.7122 12.4312C19.4745 13.1245 19.2546 13.8237 19.0526 14.5286C18.5774 14.412 18.1003 14.3043 17.6212 14.2055C9.92407 12.6252 3.72452 13.666 1.68551 17.2069C-0.269672 20.6025 1.77507 26.1527 6.65807 31.7557C7.14234 32.31 7.64032 32.852 8.15201 33.3815C7.5488 34.0028 6.9776 34.6238 6.44521 35.2414C1.68056 40.7653 -0.247257 46.2247 1.70477 49.6056C3.72075 53.0979 9.83304 54.2394 17.2727 52.7754C17.8756 52.6559 18.4752 52.5214 19.0714 52.372C19.2899 53.1345 19.5295 53.8903 19.7902 54.6395C22.1954 61.5267 25.9611 65.9237 29.8654 65.9223C33.8976 65.9199 37.9397 61.1958 40.3887 54.0196C40.5821 53.4525 40.7652 52.8636 40.9387 52.2572C41.709 52.4488 42.4841 52.6188 43.2643 52.7673C50.4323 54.1234 56.1226 53.0568 58.0711 49.6735C60.0832 46.1787 58.0087 40.3172 53.0143 34.6119ZM4.09415 18.5939C5.34943 16.4142 10.4159 15.5639 17.0617 16.9282C17.4864 17.0156 17.9184 17.1132 18.3577 17.221C17.7089 20.0912 17.2511 23.0013 16.9873 25.9321C14.5893 27.619 12.3031 29.4594 10.1429 31.4417C9.66693 30.9495 9.2037 30.4453 8.75317 29.9293C4.56931 25.1285 2.91587 20.6401 4.09415 18.5939ZM16.7383 37.2286C15.0773 35.9709 13.5337 34.6824 12.1327 33.3865C13.5327 32.0987 15.0773 30.8146 16.7349 29.5603C16.6753 30.838 16.6458 32.1167 16.6463 33.3964C16.6472 34.6743 16.6779 35.9517 16.7383 37.2286ZM16.7363 50.0482C13.9166 50.6752 11.0056 50.7779 8.14876 50.3512C7.3656 50.2902 6.60327 50.0693 5.90887 49.702C5.21447 49.3348 4.60275 48.8291 4.11152 48.2161C2.92713 46.1644 4.4751 41.7812 8.54994 37.0568C9.06224 36.4647 9.59133 35.8881 10.1372 35.327C12.2978 37.3196 14.5877 39.1672 16.9921 40.8576C17.2595 43.8259 17.7227 46.7732 18.3787 49.6803C17.8343 49.8165 17.2869 49.9391 16.7363 50.0482ZM39.8377 23.8945C38.7466 23.207 37.6421 22.5415 36.524 21.8981C35.4238 21.2648 34.3103 20.6553 33.1836 20.0696C35.1128 19.2585 37.0091 18.5657 38.8398 18.0012C39.2714 19.9476 39.6044 21.9145 39.8377 23.8945ZM22.3408 13.3347C24.4106 7.31251 27.4731 3.63836 29.8346 3.63736C32.3496 3.63615 35.6173 7.60061 37.754 14.0399C37.8928 14.4597 38.024 14.8818 38.1476 15.3063C35.3405 16.177 32.594 17.2325 29.9263 18.4658C27.2696 17.218 24.5318 16.1507 21.7314 15.2714C21.9186 14.6209 22.1217 13.9753 22.3408 13.3347ZM21.0383 17.9665C22.9479 18.5677 24.8259 19.2648 26.6653 20.0551C24.3862 21.2312 22.166 22.5124 20.0048 23.8984C20.2659 21.8229 20.6133 19.8343 21.0383 17.9665ZM20.0095 42.8883C21.0873 43.5783 22.1809 44.2427 23.2902 44.8817C24.4217 45.5332 25.5683 46.1573 26.73 46.7541C24.8766 47.5718 22.9824 48.2938 21.055 48.9172C20.6251 47.0235 20.2738 45 20.0095 42.8883ZM37.758 53.1213C36.8926 55.8772 35.5272 58.4503 33.7303 60.7119C33.2862 61.3597 32.7138 61.9098 32.0488 62.3278C31.3839 62.7458 30.6403 63.023 29.8639 63.1422C27.4949 63.1436 24.4712 59.6125 22.4143 53.7227C22.1721 53.0264 21.9493 52.3237 21.7458 51.6146C24.5595 50.7069 27.3085 49.6095 29.9737 48.3299C32.6634 49.5712 35.4318 50.6346 38.2608 51.5132C38.1063 52.0531 37.9387 52.5892 37.758 53.1213ZM38.9365 48.8134C37.0847 48.2408 35.1609 47.5364 33.2039 46.7134C34.3071 46.1328 35.4183 45.5196 36.5375 44.8739C37.686 44.2107 38.8052 43.5309 39.8951 42.8345C39.678 44.8426 39.3581 46.8381 38.9365 48.8134ZM40.3884 33.3844C40.3908 35.3601 40.3291 37.3342 40.2033 39.3067C38.6005 40.3914 36.9084 41.4506 35.1478 42.467C33.3945 43.4792 31.6574 44.4095 29.9533 45.2514C28.1601 44.392 26.4014 43.4659 24.6774 42.4732C22.963 41.4863 21.2879 40.4356 19.6522 39.3208C19.5027 37.3489 19.4274 35.3734 19.4262 33.3944C19.4249 31.4167 19.4989 29.4417 19.6476 27.4682C21.25 26.3739 22.9298 25.3156 24.6666 24.3128C26.4114 23.3053 28.1703 22.3791 29.9196 21.5395C31.6907 22.4003 33.4299 23.3227 35.1371 24.3069C36.8503 25.2915 38.53 26.3311 40.1763 27.4257C40.3177 29.4089 40.3882 31.3951 40.3884 33.3844ZM43.5008 16.8164C49.7513 15.6006 54.4641 16.4185 55.6447 18.4632C56.9024 20.6417 55.0999 25.4528 50.5898 30.5208C50.3406 30.8004 50.0819 31.0813 49.814 31.3633C47.6164 29.3768 45.2861 27.5422 42.8393 25.8723C42.5923 22.9736 42.1517 20.0947 41.5202 17.2548C42.1932 17.0892 42.8534 16.9431 43.5008 16.8164ZM43.0783 29.4541C44.7287 30.6592 46.3156 31.949 47.8324 33.3184C46.3223 34.7104 44.7404 36.0225 43.0934 37.2493C43.1438 35.9612 43.1686 34.6725 43.1678 33.3831C43.1672 32.0732 43.1374 30.7635 43.0783 29.4541ZM55.662 48.2862C54.4796 50.3395 49.9107 51.1957 43.7806 50.0359C43.0781 49.9033 42.3572 49.7454 41.618 49.5623C42.2343 46.6859 42.6554 43.7712 42.8785 40.838C45.3213 39.1389 47.6442 37.2738 49.8309 35.2559C50.2135 35.6534 50.5775 36.0491 50.9228 36.4429C52.8782 38.569 54.4255 41.0367 55.4873 43.7231C55.8268 44.4313 56.0175 45.2017 56.0476 45.9865C56.0776 46.7714 55.9464 47.5541 55.662 48.2862Z" fill="#39B3F8"/>
</svg>
