<svg width="74" height="74" viewBox="0 0 74 74" fill="none" xmlns="http://www.w3.org/2000/svg">
<path d="M37 21.705C30.2001 21.705 25.9504 25.1039 24.2503 31.9013C26.8005 28.5023 29.7754 27.2281 33.175 28.0776C35.1149 28.5622 36.5013 29.9696 38.0363 31.5269C40.5361 34.0637 43.4294 36.9997 49.7497 36.9997C56.549 36.9997 60.7993 33.6008 62.4988 26.8028C59.9492 30.2018 56.9743 31.4765 53.574 30.6271C51.6348 30.1425 50.2484 28.735 48.7134 27.1778C46.2136 24.641 43.3197 21.705 37 21.705ZM24.2503 36.9997C17.451 36.9997 13.2007 40.3987 11.5012 47.1967C14.0508 43.7977 17.0257 42.5229 20.426 43.373C22.3652 43.8583 23.7516 45.2651 25.2866 46.8217C27.7864 49.3585 30.6803 52.2951 37 52.2951C43.7999 52.2951 48.0496 48.8962 49.7497 42.0982C47.1995 45.4972 44.2246 46.772 40.825 45.9219C38.8851 45.4379 37.4987 44.0298 35.9637 42.4732C33.4639 39.9364 30.5706 36.9997 24.2503 36.9997Z" fill="#39B3F8"/>
</svg>
